<svg width="400" height="400" viewBox="0 0 400 400" fill="none" xmlns="http://www.w3.org/2000/svg">
<path d="M134.016 359.03C120.755 358.814 107.601 356.226 95.2022 351.59C84.5283 347.601 74.8248 341.24 66.8464 333.154C58.6523 325.175 52.3989 315.472 48.4097 304.798C43.7736 292.399 41.2938 279.245 40.9704 265.984C40.2156 248.949 40 243.45 40 200C40 156.55 40.2156 151.051 40.9704 134.016C41.186 120.755 43.7736 107.601 48.4097 95.2022C52.3989 84.5283 58.7601 74.8248 66.8464 66.8464C74.8248 58.7601 84.5283 52.3989 95.2022 48.4097C107.601 43.7736 120.755 41.186 134.016 40.9704C151.051 40.2156 156.55 40 200 40C243.45 40 248.949 40.2156 265.984 40.9704C279.245 41.186 292.399 43.7736 304.798 48.4097C315.472 52.3989 325.175 58.7601 333.154 66.8464C341.348 74.8248 347.601 84.5283 351.59 95.2022C356.226 107.601 358.814 120.755 359.03 134.016C359.784 151.051 360 156.55 360 200C360 243.45 359.784 248.949 359.03 265.984C358.706 279.245 356.226 292.399 351.59 304.798C347.601 315.472 341.24 325.175 333.154 333.154C325.175 341.348 315.472 347.601 304.798 351.59C292.399 356.226 279.245 358.706 265.984 359.03C248.949 359.784 243.45 360 200 360C156.55 360 151.051 359.784 134.016 359.03ZM135.31 69.7574C125.175 69.8652 115.148 71.6981 105.553 75.2561C98.6523 77.8437 92.2911 81.9407 87.1159 87.2237C81.8329 92.3989 77.7359 98.6523 75.1483 105.66C71.5903 115.148 69.7574 125.283 69.6496 135.418C68.8949 152.345 68.6793 157.305 68.6793 200.108C68.6793 242.911 68.8949 247.871 69.6496 264.798C69.7574 274.933 71.5903 284.96 75.1483 294.555C77.7359 301.456 81.8329 307.817 87.1159 312.992C92.2911 318.275 98.5445 322.372 105.553 324.96C115.04 328.518 125.175 330.35 135.31 330.458C152.237 331.213 157.197 331.429 200 331.429C242.803 331.429 247.763 331.321 264.69 330.458C274.825 330.35 284.852 328.518 294.447 324.96C301.456 322.372 307.709 318.275 312.884 312.992C318.167 307.817 322.264 301.563 324.852 294.555C328.41 285.067 330.243 274.933 330.35 264.798C331.105 247.871 331.321 242.911 331.321 200.108C331.321 157.305 331.213 152.345 330.35 135.418C330.243 125.283 328.41 115.256 324.852 105.66C322.264 98.7601 318.167 92.3989 312.884 87.2237C307.709 81.9407 301.456 77.8437 294.447 75.2561C284.96 71.6981 274.825 69.8652 264.69 69.7574C247.871 69.0027 242.803 68.7871 200 68.7871C157.197 68.7871 152.237 68.8949 135.31 69.7574ZM120.647 200C120.647 156.119 156.226 120.647 200 120.539C243.881 120.539 279.353 156.119 279.353 199.892C279.353 243.774 243.774 279.245 200 279.353C156.119 279.461 120.647 243.881 120.647 200ZM148.464 200C148.464 228.464 171.536 251.536 200 251.536C228.464 251.536 251.536 228.464 251.536 200C251.536 171.536 228.464 148.464 200 148.464C171.536 148.464 148.464 171.536 148.464 200ZM265.121 115.04C265.121 104.043 274.07 95.2022 285.067 95.2022C296.065 95.2022 305.013 104.151 305.013 115.04C305.013 126.038 296.173 134.879 285.175 134.879C274.07 134.879 265.121 125.93 265.121 115.04C265.121 114.933 265.121 114.933 265.121 115.04Z" fill="white"/>
</svg>
