<svg width="400" height="400" viewBox="0 0 400 400" fill="none" xmlns="http://www.w3.org/2000/svg">
<path d="M20.2802 309.744C22.9883 330.662 37.0895 342.335 59.8755 342.616H59.9689H339.938C365.525 342.616 379.72 328.421 380 302.647V302.553V98.1332C380 98.0398 380 97.9464 380 97.853C379.72 88.3277 377.852 80.7635 374.21 74.6001C374.117 74.4133 374.023 74.2266 373.93 74.0398C373.65 73.4795 373.276 72.9192 372.903 72.4523C372.903 72.4523 372.903 72.3589 372.809 72.3589C370.848 69.4639 368.327 66.9425 365.339 65.0748C364.498 64.3277 363.658 63.7674 362.63 63.2071C359.735 61.6196 356.654 60.4056 353.012 59.5651C348.809 58.3511 344.327 57.7908 339.564 58.0709H60.1556C41.4786 57.6974 31.7665 65.5417 27.0039 72.2655C22.3346 78.8024 20 87.3005 20 98.2266V302.647C20 304.888 20 307.223 20.2802 309.744ZM151.767 202.258L38.677 284.25V98.1332C38.677 95.0515 38.9572 92.3433 39.4241 89.9153L151.767 202.258ZM340.031 323.939H60.1556C48.6693 323.752 40.6381 320.857 38.8638 307.316C38.8638 307.223 38.8638 307.223 38.8638 307.129L165.214 215.612L172.965 223.363L173.058 223.456C184.451 234.569 196.778 238.398 209.479 234.849C209.572 234.849 209.665 234.756 209.759 234.756C215.362 232.981 221.152 229.526 226.755 224.483C227.222 224.11 227.595 223.643 227.969 223.176C228.249 222.896 228.529 222.709 228.809 222.429L235.066 216.172L361.23 307.223C359.829 319.176 353.572 323.939 340.031 323.939ZM360.669 90.7557C361.136 92.997 361.416 95.425 361.51 98.2266V284.343L248.607 202.911L360.669 90.7557ZM59.8755 76.6546C59.9689 76.6546 59.9689 76.6546 60.0623 76.6546H340.031C340.218 76.6546 340.405 76.6546 340.591 76.6546C343.206 76.4678 345.541 76.748 347.595 77.3083L228.809 196.094C228.342 196.468 227.782 196.841 227.409 197.308L216.016 208.701C215.082 209.448 214.241 210.195 213.494 211.129C210.132 214.024 207.051 215.892 204.156 216.919C200.327 217.946 194.35 218.32 186.039 210.195L172.778 196.935L53.0584 77.1215C55.1128 76.8414 57.3541 76.6546 59.8755 76.6546Z" fill="white"/>
</svg>
