<svg width="400" height="400" viewBox="0 0 400 400" fill="none" xmlns="http://www.w3.org/2000/svg">
<g clip-path="url(#clip0_671_701)">
<path fill-rule="evenodd" clip-rule="evenodd" d="M193.746 6.25383C193.746 4.59521 194.405 3.00452 195.578 1.8317C196.751 0.658883 198.341 0 200 0C201.659 0 203.249 0.658883 204.422 1.8317C205.595 3.00452 206.254 4.59521 206.254 6.25383V52.7794C206.254 54.4381 205.595 56.0287 204.422 57.2016C203.249 58.3744 201.659 59.0333 200 59.0333C198.341 59.0333 196.751 58.3744 195.578 57.2016C194.405 56.0287 193.746 54.4381 193.746 52.7794V6.25383ZM332.687 58.6196L299.794 91.5345C298.621 92.7071 297.962 94.2977 297.961 95.9564C297.961 97.6151 298.62 99.2061 299.792 100.379C300.965 101.552 302.555 102.212 304.214 102.212C305.873 102.213 307.464 101.554 308.637 100.381L341.552 67.4666C342.132 66.8857 342.593 66.1961 342.907 65.4372C343.221 64.6784 343.383 63.8651 343.382 63.0437C343.382 62.2224 343.22 61.4092 342.906 60.6505C342.591 59.8918 342.13 59.2024 341.55 58.6218C340.969 58.0412 340.279 57.5807 339.52 57.2666C338.761 56.9525 337.948 56.7909 337.127 56.7911C336.305 56.7913 335.492 56.9533 334.733 57.2678C333.975 57.5823 333.285 58.0432 332.705 58.6241L332.687 58.6196ZM393.904 193.891C395.536 193.934 397.086 194.613 398.224 195.782C399.363 196.952 400 198.519 400 200.151C400 201.783 399.363 203.351 398.224 204.52C397.086 205.69 395.536 206.368 393.904 206.412H347.379C345.747 206.368 344.197 205.69 343.058 204.52C341.92 203.351 341.283 201.783 341.283 200.151C341.283 198.519 341.92 196.952 343.058 195.782C344.197 194.613 345.747 193.934 347.379 193.891H393.904ZM341.534 332.845L308.619 299.93C307.445 298.758 305.854 298.099 304.195 298.1C302.536 298.101 300.945 298.761 299.772 299.935C298.599 301.108 297.941 302.7 297.942 304.359C297.943 306.018 298.603 307.609 299.777 308.782L332.669 341.674C333.25 342.255 333.939 342.716 334.698 343.03C335.457 343.345 336.27 343.507 337.091 343.507C337.912 343.507 338.726 343.346 339.485 343.032C340.243 342.717 340.933 342.257 341.514 341.676C342.095 341.096 342.556 340.406 342.87 339.648C343.185 338.889 343.347 338.076 343.347 337.254C343.347 336.433 343.185 335.62 342.871 334.861C342.557 334.102 342.097 333.413 341.516 332.832L341.534 332.845ZM206.254 394.08C206.254 395.739 205.595 397.329 204.422 398.502C203.249 399.675 201.659 400.334 200 400.334C198.341 400.334 196.751 399.675 195.578 398.502C194.405 397.329 193.746 395.739 193.746 394.08V347.537C193.746 345.878 194.405 344.287 195.578 343.114C196.751 341.942 198.341 341.283 200 341.283C201.659 341.283 203.249 341.942 204.422 343.114C205.595 344.287 206.254 345.878 206.254 347.537V394.08ZM67.313 341.688L100.228 308.795C101.402 307.622 102.062 306.031 102.062 304.372C102.063 302.713 101.405 301.122 100.232 299.948C99.0598 298.774 97.4689 298.114 95.8098 298.113C94.1507 298.113 92.5592 298.771 91.3854 299.943L58.4705 332.858C57.2979 334.031 56.6394 335.622 56.6398 337.281C56.6402 338.94 57.2996 340.53 58.4727 341.703C59.6459 342.876 61.2369 343.534 62.8956 343.534C64.5543 343.533 66.1449 342.874 67.3175 341.701L67.313 341.688ZM6.09583 206.412C4.46434 206.368 2.91427 205.69 1.77569 204.52C0.63712 203.351 0 201.783 0 200.151C0 198.519 0.63712 196.952 1.77569 195.782C2.91427 194.613 4.46434 193.934 6.09583 193.891H52.617C54.2485 193.934 55.7986 194.613 56.9371 195.782C58.0757 196.952 58.7128 198.519 58.7128 200.151C58.7128 201.783 58.0757 203.351 56.9371 204.52C55.7986 205.69 54.2485 206.368 52.617 206.412H6.09583ZM58.4661 67.4621L91.3809 100.377C91.9618 100.958 92.6514 101.418 93.4103 101.732C94.1691 102.046 94.9825 102.208 95.8038 102.208C96.6251 102.207 97.4383 102.046 98.197 101.731C98.9557 101.417 99.6451 100.956 100.226 100.375C100.806 99.7939 101.267 99.1043 101.581 98.3454C101.895 97.5866 102.057 96.7733 102.056 95.9519C102.056 95.1306 101.894 94.3174 101.58 93.5587C101.265 92.8 100.804 92.1106 100.223 91.53L67.3308 58.6152C66.1582 57.442 64.5676 56.7827 62.9089 56.7822C61.2502 56.7818 59.6593 57.4403 58.4861 58.6129C57.3129 59.7855 56.6536 61.3761 56.6532 63.0349C56.6527 64.6936 57.3113 66.2845 58.4839 67.4577L58.4661 67.4621ZM200 84.7825C226.689 84.7804 252.553 94.0322 273.186 110.962C293.818 127.891 307.943 151.451 313.152 177.627C318.362 203.802 314.334 230.974 301.756 254.514C289.178 278.053 268.827 296.503 244.171 306.719C219.515 316.936 192.079 318.288 166.538 310.544C140.997 302.801 118.931 286.441 104.099 264.252C89.2681 242.063 82.5891 215.419 85.2004 188.858C87.8117 162.297 99.5516 137.463 118.42 118.587C129.119 107.854 141.835 99.3417 155.835 93.5403C169.836 87.7389 184.845 84.7625 200 84.7825Z" fill="white"/>
</g>
<defs>
<clipPath id="clip0_671_701">
<rect width="400" height="400" fill="white"/>
</clipPath>
</defs>
</svg>
